<svg width="216" height="130" viewBox="0 0 216 130" fill="none" xmlns="http://www.w3.org/2000/svg">
<path d="M109.079 105.261C109.079 131.685 132.909 153.106 162.306 153.106C191.702 153.106 215.532 131.685 215.532 105.261C215.532 91.3289 208.908 78.7878 198.336 70.0437C188.857 62.203 176.203 57.4152 162.306 57.4152C132.909 57.4152 109.079 78.8364 109.079 105.261Z" fill="white" fill-opacity="0.12"/>
<path d="M109.079 105.261C109.079 131.685 132.909 153.106 162.306 153.106H8.69C38.0862 153.106 61.9166 131.685 61.9166 105.261C61.9166 101.885 61.5277 98.5916 60.7881 95.4137C63.2948 95.7392 65.858 95.9077 68.465 95.9077C94.3004 95.9077 115.837 79.3618 120.675 57.4152H155.395H162.306C132.909 57.4152 109.079 78.8364 109.079 105.261Z" fill="white" fill-opacity="0.12"/>
<path d="M120.675 57.4152C121.342 54.3904 121.692 51.263 121.692 48.0622C121.692 43.8584 121.088 39.7813 119.956 35.8969C124.404 43.0697 137.718 57.4152 155.395 57.4152H120.675Z" fill="white" fill-opacity="0.12"/>
<path fill-rule="evenodd" clip-rule="evenodd" d="M8.69 153.106C-20.7062 153.106 -44.5366 131.685 -44.5366 105.261C-44.5366 78.8364 -20.7062 57.4152 8.69 57.4152C11.297 57.4152 13.8602 57.5837 16.3669 57.9092C20.9038 77.4033 38.64 92.5378 60.7881 95.4137C61.5277 98.5916 61.9166 101.885 61.9166 105.261C61.9166 131.685 38.0862 153.106 8.69 153.106Z" fill="white" fill-opacity="0.12"/>
<path d="M16.3669 57.9092C20.9038 77.4033 38.64 92.5378 60.7881 95.4137C56.2512 75.9196 38.515 60.7851 16.3669 57.9092Z" fill="white" fill-opacity="0.12"/>
<path d="M15.2384 48.0622C15.2384 21.6378 39.0688 0.216644 68.465 0.216644C93.1847 0.216644 113.969 15.3643 119.956 35.8969C121.088 39.7813 121.692 43.8584 121.692 48.0622C121.692 51.263 121.342 54.3904 120.675 57.4152C115.837 79.3618 94.3004 95.9077 68.465 95.9077C65.858 95.9077 63.2948 95.7392 60.7881 95.4137C56.2512 75.9196 38.515 60.7851 16.3669 57.9092C15.6273 54.7313 15.2384 51.4375 15.2384 48.0622Z" fill="white" fill-opacity="0.12"/>
</svg>
